<?xml version="1.0" encoding="utf-8"?>
<svg xmlns="http://www.w3.org/2000/svg" xmlns:xlink="http://www.w3.org/1999/xlink" width="233.175" height="38.854" viewBox="0 0 174.88127 29.14076"><defs><symbol overflow="visible" id="b"><path d="M7.203-2.5c0-1.828-1.5-3.313-3.328-3.313C2.03-5.813.547-4.313.547-2.5c0 1.844 1.5 3.328 3.328 3.328 1.844 0 3.328-1.5 3.328-3.328zM.797-2.625c.094-1.672 1.39-2.86 2.953-2.938v2.938zM4-5.563c1.563.08 2.844 1.282 2.953 2.938H4zM3.75.577C2.203.5.89-.673.797-2.373H3.75zm3.203-2.952C6.843-.672 5.53.5 4 .578v-2.953zm0 0"/></symbol><symbol overflow="visible" id="e"><path d="M7.203-2.5c0-1.828-1.5-3.313-3.328-3.313C2.03-5.813.547-4.313.547-2.5c0 1.844 1.5 3.328 3.328 3.328 1.844 0 3.328-1.5 3.328-3.328zM.797-2.625C.89-4.39 2.344-5.563 3.875-5.563c1.563 0 2.97 1.188 3.078 2.938zm6.156.25C6.843-.562 5.39.578 3.875.578 2.328.578.89-.594.797-2.375zm0 0"/></symbol><symbol overflow="visible" id="a"><path d="M2.64-3.72h1.126c-.33 1.47-.422 1.908-.422 2.58 0 .14 0 .406.078.75.11.437.22.5.36.5.202 0 .42-.172.42-.376 0-.062 0-.078-.06-.218-.298-.72-.298-1.375-.298-1.657 0-.52.078-1.07.187-1.58h1.13c.14 0 .5 0 .5-.35 0-.24-.21-.24-.4-.24H1.91c-.218 0-.593 0-1.03.47-.345.39-.61.84-.61.89 0 .01 0 .11.125.11.08 0 .095-.05.158-.13.485-.767 1.063-.767 1.266-.767h.56C2.06-2.52 1.53-1.317 1.11-.41c-.08.156-.08.17-.08.25 0 .187.154.265.28.265.296 0 .374-.283.5-.64.14-.47.14-.487.265-.987zm0 0"/></symbol><symbol overflow="visible" id="c"><path d="M5.156-3.72c.14 0 .5 0 .5-.342 0-.235-.218-.235-.39-.235H2.984c-1.5 0-2.61 1.64-2.61 2.828 0 .88.596 1.58 1.5 1.58 1.173 0 2.5-1.2 2.5-2.73 0-.17 0-.65-.31-1.09zM1.89-.11C1.39-.11 1-.47 1-1.186c0-.297.11-1.11.47-1.704.42-.688 1.014-.83 1.358-.83.828 0 .906.658.906.97 0 .47-.203 1.28-.53 1.797-.392.578-.938.844-1.313.844zm0 0"/></symbol><symbol overflow="visible" id="d"><path d="M6.844-3.266c.156 0 .343 0 .343-.187 0-.203-.187-.203-.328-.203H.89c-.14 0-.328 0-.328.203 0 .187.188.187.33.187zm.015 1.938c.14 0 .32 0 .32-.203 0-.19-.19-.19-.35-.19H.89c-.14 0-.328 0-.328.19 0 .2.188.2.33.2zm0 0"/></symbol></defs><use xlink:href="#a" x="203.638" y="412.92" width="100%" height="100%" transform="translate(-203.904 -398.336)"/><use xlink:href="#b" x="211.798" y="412.92" width="100%" height="100%" transform="translate(-203.904 -398.336)"/><use xlink:href="#c" x="221.759" y="412.92" width="100%" height="100%" transform="translate(-203.904 -398.336)"/><use xlink:href="#d" x="230.639" y="412.92" width="100%" height="100%" transform="translate(-203.904 -398.336)"/><path d="M37.416 28.742h14.172V14.57H37.416zM51.588 14.57h14.176V.4H51.588zm0 0" fill="none" stroke="#000" stroke-width=".797" stroke-linecap="round" stroke-miterlimit="10"/><use xlink:href="#a" x="245.388" y="422.138" width="100%" height="100%" transform="translate(-203.904 -398.336)"/><use xlink:href="#c" x="259.555" y="407.965" width="100%" height="100%" transform="translate(-203.904 -398.336)"/><use xlink:href="#a" x="312.36" y="412.92" width="100%" height="100%" transform="translate(-203.904 -398.336)"/><use xlink:href="#e" x="320.64" y="412.92" width="100%" height="100%" transform="translate(-203.904 -398.336)"/><use xlink:href="#c" x="330.6" y="412.92" width="100%" height="100%" transform="translate(-203.904 -398.336)"/><use xlink:href="#d" x="339.36" y="412.92" width="100%" height="100%" transform="translate(-203.904 -398.336)"/><path d="M146.135 14.57h14.176V.4h-14.17zm14.175 14.172h14.173V14.57H160.31zm0 0" fill="none" stroke="#000" stroke-width=".797" stroke-linecap="round" stroke-miterlimit="10"/><use xlink:href="#a" x="354.109" y="407.964" width="100%" height="100%" transform="translate(-203.904 -398.336)"/><use xlink:href="#c" x="368.275" y="422.137" width="100%" height="100%" transform="translate(-203.904 -398.336)"/></svg>