<?xml version="1.0" encoding="utf-8"?>
<svg xmlns="http://www.w3.org/2000/svg" xmlns:xlink="http://www.w3.org/1999/xlink" width="394.174" height="150.554" viewBox="0 0 295.63013 112.91532"><defs><symbol overflow="visible" id="a"><path d="M4.422-2.5c0-1.063-.89-1.922-1.922-1.922-1.078 0-1.953.89-1.953 1.922 0 1.063.875 1.938 1.953 1.938 1.03 0 1.922-.86 1.922-1.938zm0 0"/></symbol><symbol overflow="visible" id="b"><path d="M3.094-4.828c.062-.266.078-.344.812-.344.235 0 .313 0 .313-.156 0-.016-.02-.11-.15-.11-.17 0-.41.016-.58.016h-.56c-.83 0-1.03-.016-1.08-.016-.03 0-.16 0-.16.14 0 .126.09.126.22.126.26 0 .5 0 .5.125 0 .03 0 .03-.03.14L1.33-.624c-.078.297-.094.36-.687.36-.14 0-.25 0-.25.156C.39 0 .5 0 .64 0h3.844c.204 0 .204-.016.266-.156.094-.22.672-1.72.672-1.797 0-.078-.063-.125-.125-.125-.078 0-.094.062-.156.187-.28.73-.62 1.62-2.06 1.62h-1C2-.28 1.97-.28 1.97-.33c0-.063.016-.14.048-.19zm0 0"/></symbol><symbol overflow="visible" id="d"><path d="M3.094-4.828c.062-.266.078-.344.687-.344.18 0 .29 0 .29-.156 0-.016-.01-.11-.14-.11s-.37.016-.5.016h-1.1c-.11 0-.4-.016-.51-.016-.03 0-.15 0-.15.14 0 .126.098.126.25.126.52 0 .52.047.52.14 0 .016 0 .048-.044.173L1.33-.62c-.078.28-.094.36-.687.36-.18 0-.28 0-.28.156 0 .032.03.11.13.11.11 0 .375-.016.5-.03H2.1c.11.014.39.03.5.03.046 0 .155 0 .155-.156 0-.11-.093-.11-.25-.11-.124 0-.17 0-.312-.015C2.07-.29 1.99-.29 1.99-.385c0-.046.016-.046.047-.156zm0 0"/></symbol><symbol overflow="visible" id="c"><path d="M3.375-2.36c-.22.063-.266.235-.266.33 0 .186.15.233.23.233.18 0 .36-.14.36-.375 0-.328-.36-.47-.66-.47-.41 0-.64.314-.71.423-.08-.15-.32-.42-.77-.42-.69 0-1.098.72-1.098.92 0 .04.034.08.11.08.096 0 .11-.03.127-.08.155-.48.56-.71.843-.71.298 0 .39.19.39.39 0 .07 0 .13-.045.32-.14.55-.266 1.1-.298 1.17-.095.22-.314.43-.564.43-.03 0-.2 0-.34-.092.234-.08.27-.27.27-.316 0-.16-.13-.24-.25-.24C.56-.78.37-.65.37-.4c0 .342.376.47.657.47.35-.004.6-.238.71-.425.128.25.41.43.75.43.707 0 1.097-.73 1.097-.92 0-.014 0-.092-.11-.092-.077 0-.093.05-.11.11-.17.52-.592.7-.86.7-.22 0-.373-.12-.373-.37 0-.124.02-.25.08-.452l.19-.78c.06-.23.1-.34.22-.48.08-.094.24-.204.42-.204.03 0 .21 0 .35.08zm0 0"/></symbol><symbol overflow="visible" id="h"><path d="M3.563-2.297c.015-.047.015-.062.015-.078 0-.078-.047-.203-.203-.203-.11 0-.203.062-.25.156-.03.03-.063.22-.094.328l-.31 1.25c-.04.172-.06.266-.31.485-.06.07-.25.22-.51.22-.43 0-.43-.39-.43-.5 0-.25.08-.53.35-1.18.047-.14.06-.19.06-.29 0-.33-.296-.51-.592-.51-.61 0-.904.798-.904.92 0 .034.03.08.11.08.094 0 .11-.03.125-.08.17-.575.483-.716.655-.716.11 0 .155.08.155.22 0 .124-.077.327-.14.484C1.06-1.19 1-.922 1-.706c0 .567.42.785.89.785.08 0 .36 0 .687-.28-.08.33-.14.56-.42.87-.11.125-.377.36-.737.36-.06 0-.31 0-.452-.157.268-.047.3-.28.3-.33C1.25.363 1.123.3 1 .3.86.3.656.423.656.69c0 .296.28.53.75.53.64 0 1.407-.47 1.578-1.22zm0 0"/></symbol><symbol overflow="visible" id="e"><path d="M2.14-3.797c0-.187-.015-.187-.203-.187-.39.39-1 .39-1.218.39v.235c.15 0 .56 0 .92-.17v3.02c0 .21 0 .29-.63.29H.76V0c.33-.03.797-.03 1.126-.03.33 0 .797 0 1.125.03v-.234h-.25c-.62 0-.62-.078-.62-.282zm0 0"/></symbol><symbol overflow="visible" id="f"><path d="M3.22-1.125H3c-.016.094-.078.484-.156.547-.047.047-.53.047-.625.047H1.11l.765-.63c.203-.17.734-.55.922-.74.172-.18.422-.49.422-.91C3.22-3.56 2.54-4 1.73-4c-.77.003-1.3.517-1.3 1.083 0 .295.25.342.31.342.152 0 .324-.11.324-.33 0-.125-.08-.328-.345-.328.14-.3.5-.53.92-.53.62 0 .95.47.95.95 0 .422-.288.86-.69 1.25L.5-.25C.437-.187.437-.187.437 0H3.03zm0 0"/></symbol><symbol overflow="visible" id="g"><path d="M1.766-1.984c.5 0 .843.343.843.953 0 .65-.39.93-.83.93C1.61-.1 1-.13.73-.47c.233-.03.33-.188.33-.345 0-.203-.14-.343-.347-.343-.157 0-.345.11-.345.36 0 .593.655.92 1.42.92.89 0 1.47-.56 1.47-1.155 0-.44-.33-.908-1.047-1.08.49-.157.86-.547.86-1.03 0-.486-.56-.845-1.28-.845-.7 0-1.23.328-1.23.812 0 .266.21.328.33.328.16 0 .31-.094.31-.312 0-.186-.12-.295-.29-.31.28-.31.83-.31.89-.31.3 0 .69.14.69.64 0 .327-.19.905-.793.936-.11 0-.264.015-.31.015-.063.02-.125.02-.125.11s.064.1.157.1zm0 0"/></symbol><symbol overflow="visible" id="i"><path d="M2.5-5.078c0-.22-.016-.22-.234-.22-.33.314-.75.5-1.5.5v.267c.218 0 .64 0 1.11-.21v4.08c0 .29-.032.39-.782.39H.812V0c.33-.03 1.016-.03 1.375-.03.36 0 1.047 0 1.376.03v-.266H3.28c-.75 0-.78-.093-.78-.39zm0 0"/></symbol><symbol overflow="visible" id="j"><path d="M2.25-1.625c.125-.125.453-.39.594-.5.484-.453.953-.89.953-1.61 0-.953-.797-1.562-1.78-1.562-.97 0-1.595.72-1.595 1.438 0 .39.312.44.422.44.172 0 .422-.11.422-.42 0-.4-.407-.4-.5-.4.234-.59.765-.78 1.156-.78.734 0 1.125.63 1.125 1.3 0 .83-.578 1.44-1.53 2.39l-1 1.05C.42-.22.42-.2.42 0h3.14l.235-1.422h-.25c-.016.156-.078.547-.172.703-.047.07-.656.07-.78.07H1.17zm0 0"/></symbol><symbol overflow="visible" id="k"><path d="M2.016-2.656c.625 0 1.03.453 1.03 1.297 0 1-.562 1.29-.983 1.29-.438 0-1.047-.15-1.33-.58.298 0 .5-.19.5-.44 0-.26-.186-.43-.452-.43-.2 0-.43.13-.43.46 0 .75.81 1.25 1.74 1.25C3.13.18 3.88-.555 3.88-1.35c0-.676-.53-1.27-1.342-1.457.626-.22 1.11-.75 1.11-1.39 0-.64-.718-1.09-1.546-1.09-.86 0-1.5.455-1.5 1.065 0 .296.18.42.4.42.25 0 .4-.17.4-.405 0-.3-.266-.41-.44-.41.346-.44.955-.47 1.096-.47.203 0 .812.062.812.89 0 .55-.237.89-.347 1.02-.23.25-.42.263-.902.294-.154 0-.22.013-.22.122 0 .11.08.11.22.11zm0 0"/></symbol></defs><path d="M52.582 109.667V69.98" fill="none" stroke="#000" stroke-width=".797" stroke-miterlimit="10" stroke-dasharray="0.79701, 1.99255"/><use xlink:href="#a" x="193.196" y="226.374" width="100%" height="100%" transform="translate(-143.106 -114.493)"/><path d="M13.85 109.667h107.224" fill="none" stroke="#000" stroke-width="1.196" stroke-miterlimit="10"/><path d="M15.762 112.218c-.157-.957-1.91-2.39-2.39-2.55.48-.16 2.233-1.594 2.39-2.552m103.402 0c.156.958 1.91 2.39 2.39 2.55-.48.16-2.234 1.595-2.39 2.552" fill="none" stroke="#000" stroke-width=".956" stroke-linecap="round" stroke-linejoin="round" stroke-miterlimit="10"/><path d="M22.816 99.745h29.766m-9.922-9.92h29.762m9.922-9.923h29.765" fill="none" stroke="#000" stroke-width=".797" stroke-miterlimit="10"/><use xlink:href="#b" x="142.715" y="226.385" width="100%" height="100%" transform="translate(-143.106 -114.493)"/><use xlink:href="#c" x="148.475" y="227.345" width="100%" height="100%" transform="translate(-143.106 -114.493)"/><use xlink:href="#d" x="171.931" y="210.276" width="100%" height="100%" transform="translate(-143.106 -114.493)"/><use xlink:href="#e" x="175.651" y="211.356" width="100%" height="100%" transform="translate(-143.106 -114.493)"/><use xlink:href="#d" x="201.696" y="200.355" width="100%" height="100%" transform="translate(-143.106 -114.493)"/><use xlink:href="#f" x="205.416" y="201.435" width="100%" height="100%" transform="translate(-143.106 -114.493)"/><use xlink:href="#d" x="236.422" y="190.433" width="100%" height="100%" transform="translate(-143.106 -114.493)"/><use xlink:href="#g" x="240.142" y="191.513" width="100%" height="100%" transform="translate(-143.106 -114.493)"/><path d="M62.504 50.136V10.452" fill="none" stroke="#000" stroke-width=".797" stroke-miterlimit="10" stroke-dasharray="0.79701, 1.99255"/><use xlink:href="#a" x="203.117" y="166.845" width="100%" height="100%" transform="translate(-143.106 -114.493)"/><path d="M13.85 50.136h107.224" fill="none" stroke="#000" stroke-width="1.196" stroke-miterlimit="10"/><path d="M15.762 52.687c-.157-.953-1.91-2.39-2.39-2.55.48-.157 2.233-1.595 2.39-2.552m103.402 0c.156.957 1.91 2.395 2.39 2.55-.48.16-2.234 1.6-2.39 2.552" fill="none" stroke="#000" stroke-width=".956" stroke-linecap="round" stroke-linejoin="round" stroke-miterlimit="10"/><path d="M22.816 40.218h29.766m9.922-9.926h29.76M42.66 20.374h29.762" fill="none" stroke="#000" stroke-width=".797" stroke-miterlimit="10"/><use xlink:href="#b" x="142.888" y="166.275" width="100%" height="100%" transform="translate(-143.106 -114.493)"/><use xlink:href="#h" x="148.648" y="167.235" width="100%" height="100%" transform="translate(-143.106 -114.493)"/><use xlink:href="#d" x="176.892" y="150.747" width="100%" height="100%" transform="translate(-143.106 -114.493)"/><use xlink:href="#e" x="180.612" y="151.827" width="100%" height="100%" transform="translate(-143.106 -114.493)"/><use xlink:href="#d" x="221.539" y="140.825" width="100%" height="100%" transform="translate(-143.106 -114.493)"/><use xlink:href="#f" x="225.259" y="141.905" width="100%" height="100%" transform="translate(-143.106 -114.493)"/><use xlink:href="#d" x="191.774" y="130.903" width="100%" height="100%" transform="translate(-143.106 -114.493)"/><use xlink:href="#g" x="195.495" y="131.984" width="100%" height="100%" transform="translate(-143.106 -114.493)"/><path d="M211.38 109.667V10.452m4.96 99.215V10.452m-52.086 52.086h119.058m-119.058-4.96h119.058" fill="none" stroke="#000" stroke-width=".797" stroke-miterlimit="10" stroke-dasharray="0.79701, 1.99255"/><path d="M175.13 109.667h107.225" fill="none" stroke="#000" stroke-width="1.196" stroke-miterlimit="10"/><path d="M177.043 112.218c-.16-.957-1.914-2.39-2.39-2.55.476-.16 2.23-1.594 2.39-2.552m103.397 0c.16.958 1.915 2.39 2.392 2.55-.477.16-2.23 1.595-2.39 2.552" fill="none" stroke="#000" stroke-width=".956" stroke-linecap="round" stroke-linejoin="round" stroke-miterlimit="10"/><path d="M164.254 98.788v-87.38" fill="none" stroke="#000" stroke-width="1.196" stroke-miterlimit="10"/><path d="M166.805 96.874c-.957.16-2.39 1.914-2.55 2.395-.16-.49-1.595-2.24-2.552-2.4m0-83.56c.957-.16 2.39-1.91 2.55-2.39.16.48 1.595 2.23 2.552 2.39" fill="none" stroke="#000" stroke-width=".956" stroke-linecap="round" stroke-linejoin="round" stroke-miterlimit="10"/><path d="M184.098 89.824h29.76V60.058H184.1zm19.842-39.688h29.763V20.374H203.94zm39.685 19.844h29.765V40.218h-29.765zm0 0" fill="none" stroke="#000" stroke-width=".797" stroke-miterlimit="10"/><use xlink:href="#i" x="339.967" y="192.003" width="100%" height="100%" transform="translate(-143.106 -114.493)"/><use xlink:href="#j" x="367.251" y="152.317" width="100%" height="100%" transform="translate(-143.106 -114.493)"/><use xlink:href="#k" x="399.496" y="164.719" width="100%" height="100%" transform="translate(-143.106 -114.493)"/><use xlink:href="#b" x="302.231" y="119.93" width="100%" height="100%" transform="translate(-143.106 -114.493)"/><use xlink:href="#h" x="307.99" y="120.891" width="100%" height="100%" transform="translate(-143.106 -114.493)"/><use xlink:href="#b" x="429.272" y="226.386" width="100%" height="100%" transform="translate(-143.106 -114.493)"/><use xlink:href="#c" x="435.033" y="227.346" width="100%" height="100%" transform="translate(-143.106 -114.493)"/></svg>