<?xml version="1.0" encoding="utf-8"?>
<svg xmlns="http://www.w3.org/2000/svg" xmlns:xlink="http://www.w3.org/1999/xlink" width="233.625" height="86.104" viewBox="0 0 175.21889 64.578262"><defs><symbol overflow="visible" id="a"><path d="M4.422-2.5c0-1.063-.89-1.922-1.922-1.922-1.078 0-1.953.89-1.953 1.922 0 1.063.875 1.938 1.953 1.938 1.03 0 1.922-.86 1.922-1.938zm0 0"/></symbol></defs><use xlink:href="#a" x="204.996" y="162.154" width="100%" height="100%" transform="translate(-203.543 -113.476)"/><use xlink:href="#a" x="212.083" y="169.241" width="100%" height="100%" transform="translate(-203.543 -113.476)"/><use xlink:href="#a" x="219.17" y="176.328" width="100%" height="100%" transform="translate(-203.543 -113.476)"/><use xlink:href="#a" x="226.256" y="140.894" width="100%" height="100%" transform="translate(-203.543 -113.476)"/><use xlink:href="#a" x="233.343" y="147.981" width="100%" height="100%" transform="translate(-203.543 -113.476)"/><use xlink:href="#a" x="240.43" y="155.067" width="100%" height="100%" transform="translate(-203.543 -113.476)"/><use xlink:href="#a" x="247.516" y="119.634" width="100%" height="100%" transform="translate(-203.543 -113.476)"/><use xlink:href="#a" x="254.603" y="126.721" width="100%" height="100%" transform="translate(-203.543 -113.476)"/><use xlink:href="#a" x="261.69" y="133.807" width="100%" height="100%" transform="translate(-203.543 -113.476)"/><path d="M.4 64.18h21.26V42.922H.4zm21.26-21.262h21.262V21.66H21.66zM42.922 21.66H64.18V.4H42.922zm0 0" fill="none" stroke="#000" stroke-width=".797" stroke-linecap="round" stroke-miterlimit="10"/><use xlink:href="#a" x="315.636" y="133.807" width="100%" height="100%" transform="translate(-203.543 -113.476)"/><use xlink:href="#a" x="322.723" y="126.72" width="100%" height="100%" transform="translate(-203.543 -113.476)"/><use xlink:href="#a" x="329.809" y="119.634" width="100%" height="100%" transform="translate(-203.543 -113.476)"/><use xlink:href="#a" x="336.896" y="155.067" width="100%" height="100%" transform="translate(-203.543 -113.476)"/><use xlink:href="#a" x="343.983" y="147.98" width="100%" height="100%" transform="translate(-203.543 -113.476)"/><use xlink:href="#a" x="351.07" y="140.894" width="100%" height="100%" transform="translate(-203.543 -113.476)"/><use xlink:href="#a" x="358.156" y="176.327" width="100%" height="100%" transform="translate(-203.543 -113.476)"/><use xlink:href="#a" x="365.243" y="169.241" width="100%" height="100%" transform="translate(-203.543 -113.476)"/><use xlink:href="#a" x="372.33" y="162.154" width="100%" height="100%" transform="translate(-203.543 -113.476)"/><path d="M111.04 21.66h21.26V.4h-21.26zm21.26 21.258h21.26V21.66H132.3zm21.263 21.262h21.257V42.922h-21.257zm0 0" fill="none" stroke="#000" stroke-width=".797" stroke-linecap="round" stroke-miterlimit="10"/></svg>